<?xml version="1.0" standalone="no"?>
<!DOCTYPE svg PUBLIC "-//W3C//DTD SVG 20010904//EN"
 "http://www.w3.org/TR/2001/REC-SVG-20010904/DTD/svg10.dtd">
<svg version="1.0" xmlns="http://www.w3.org/2000/svg"
 width="113.000000pt" height="121.000000pt" viewBox="0 0 113.000000 121.000000"
 preserveAspectRatio="xMidYMid meet">

<g transform="translate(0.000000,121.000000) scale(0.100000,-0.100000)"
fill="#000000" stroke="none">
<path d="M819 750 c-29 -3 -61 -17 -83 -34 l-37 -28 -25 23 c-17 16 -40 24
-79 27 -62 5 -80 -5 -101 -55 -12 -28 -19 -32 -69 -38 -30 -4 -64 -5 -75 -2
-28 7 -26 -16 2 -28 13 -6 22 -17 20 -24 -1 -7 -5 -30 -7 -50 -7 -66 -62 -255
-76 -262 -8 -4 -23 -11 -34 -15 -13 -5 14 -10 75 -15 56 -4 96 -4 98 2 2 5 13
9 25 9 69 0 145 46 186 114 26 42 56 157 43 165 -5 3 -12 18 -15 32 -9 35 25
69 51 51 86 -62 123 -68 165 -24 32 33 42 77 28 114 -13 36 -37 45 -92 38z
m42 -40 c21 -12 25 -50 9 -81 -15 -27 -76 -26 -107 3 -29 27 -29 39 0 58 47
32 68 36 98 20z m-232 -18 c40 -20 45 -30 28 -54 -12 -15 -17 -15 -72 4 -33
11 -61 21 -62 22 -2 1 6 12 17 24 25 26 43 27 89 4z m-116 -102 c18 -18 39
-30 55 -30 30 0 62 -26 62 -51 0 -41 -44 -133 -80 -168 -39 -38 -137 -78 -164
-68 -23 9 -20 50 9 147 14 46 25 93 25 104 0 12 5 38 11 59 13 47 42 50 82 7z"/>
</g>
</svg>
